<svg width="24" height="24" viewBox="0 0 24 24" fill="none" xmlns="http://www.w3.org/2000/svg">
<path d="M18.0471 7.48634C16.9738 7.37967 15.9004 7.29967 14.8204 7.23967V7.23301L14.6738 6.36634C14.5738 5.75301 14.4271 4.83301 12.8671 4.83301H11.1204C9.5671 4.83301 9.42043 5.71301 9.31376 6.35967L9.17376 7.21301C8.55376 7.25301 7.93376 7.29301 7.31376 7.35301L5.95376 7.48634C5.67376 7.51301 5.47376 7.75967 5.50043 8.03301C5.5271 8.30634 5.7671 8.50634 6.0471 8.47967L7.4071 8.34634C10.9004 7.99967 14.4204 8.13301 17.9538 8.48634C17.9738 8.48634 17.9871 8.48634 18.0071 8.48634C18.2604 8.48634 18.4804 8.29301 18.5071 8.03301C18.5271 7.75967 18.3271 7.51301 18.0471 7.48634Z" fill="#475569"/>
<path d="M16.8192 9.42699C16.6592 9.26033 16.4392 9.16699 16.2125 9.16699H7.78585C7.55918 9.16699 7.33252 9.26033 7.17918 9.42699C7.02585 9.59366 6.93918 9.82033 6.95252 10.0537L7.36585 16.8937C7.43918 17.907 7.53252 19.1737 9.85918 19.1737H14.1392C16.4658 19.1737 16.5592 17.9137 16.6325 16.8937L17.0458 10.0603C17.0592 9.82033 16.9725 9.59366 16.8192 9.42699ZM13.1058 15.8337H10.8858C10.6125 15.8337 10.3858 15.607 10.3858 15.3337C10.3858 15.0603 10.6125 14.8337 10.8858 14.8337H13.1058C13.3792 14.8337 13.6058 15.0603 13.6058 15.3337C13.6058 15.607 13.3792 15.8337 13.1058 15.8337ZM13.6658 13.167H10.3325C10.0592 13.167 9.83252 12.9403 9.83252 12.667C9.83252 12.3937 10.0592 12.167 10.3325 12.167H13.6658C13.9392 12.167 14.1658 12.3937 14.1658 12.667C14.1658 12.9403 13.9392 13.167 13.6658 13.167Z" fill="#475569"/>
</svg>
