<svg width="16" height="16" viewBox="0 0 16 16" fill="none" xmlns="http://www.w3.org/2000/svg">
<path d="M13.8134 12.16L13.1867 11.5333C13.5134 11.04 13.7067 10.4466 13.7067 9.80663C13.7067 8.07329 12.3 6.66663 10.5667 6.66663C8.83336 6.66663 7.4267 8.07329 7.4267 9.80663C7.4267 11.54 8.83336 12.9466 10.5667 12.9466C11.2067 12.9466 11.7934 12.7533 12.2934 12.4266L12.92 13.0533C13.0467 13.18 13.2067 13.24 13.3734 13.24C13.54 13.24 13.7 13.18 13.8267 13.0533C14.06 12.8133 14.06 12.4133 13.8134 12.16Z" fill="black"/>
<path d="M13.0533 2.68004V4.16004C13.0533 4.70004 12.72 5.37337 12.3867 5.71337L12.2667 5.82004C12.1733 5.90671 12.0333 5.92671 11.9133 5.88671C11.78 5.84004 11.6467 5.80671 11.5133 5.77337C11.22 5.70004 10.9067 5.66671 10.5867 5.66671C8.28667 5.66671 6.42001 7.53337 6.42001 9.83337C6.42001 10.5934 6.62668 11.34 7.02001 11.98C7.35334 12.54 7.82001 13.0067 8.32667 13.32C8.48001 13.42 8.54001 13.6334 8.40667 13.7534C8.36001 13.7934 8.31334 13.8267 8.26667 13.86L7.33334 14.4667C6.46668 15.0067 5.27334 14.4 5.27334 13.32V9.75337C5.27334 9.28004 5.00668 8.67337 4.74001 8.34004L2.21334 5.64671C1.88001 5.30671 1.61334 4.70004 1.61334 4.30004V2.74671C1.61334 1.94004 2.21334 1.33337 2.94001 1.33337H11.7267C12.4533 1.33337 13.0533 1.94004 13.0533 2.68004Z" fill="black"/>
</svg>
